<svg version="1.1" xmlns="http://www.w3.org/2000/svg" viewBox="0 0 39 39"><!-- Created with: https://fietkau.software/qr --><path d="M1 1h7v7h-7v-7zM2 2v5h5v-5h-5zM31 1h7v7h-7v-7zM32 2v5h5v-5h-5zM1 31h7v7h-7v-7zM2 32v5h5v-5h-5z" fill="#586e75"></path><path d="M3 3h3v3h-3v-3zM33 3h3v3h-3v-3zM3 33h3v3h-3v-3z" fill="#586e75"></path><path d="M9 1h1v1h-1v-1zM9 3h1v1h-1v-1zM21 3h1v1h-1v-1zM9 5h1v1h-1v-1zM25 7h1v1h-1v-1zM24 8h1v1h-1v-1zM26 8h1v1h-1v-1zM31 9h1v1h-1v-1zM37 9h1v1h-1v-1zM5 10h1v1h-1v-1zM8 12h1v1h-1v-1zM7 13h1v1h-1v-1zM18 13h1v1h-1v-1zM21 13h1v1h-1v-1zM24 13h1v1h-1v-1zM34 13h1v1h-1v-1zM8 14h1v1h-1v-1zM35 14h1v1h-1v-1zM1 17h1v1h-1v-1zM33 17h1v1h-1v-1zM32 18h1v1h-1v-1zM37 19h1v1h-1v-1zM20 20h1v1h-1v-1zM1 21h1v1h-1v-1zM21 22h1v1h-1v-1zM25 22h1v1h-1v-1zM7 23h1v1h-1v-1zM16 24h1v1h-1v-1zM25 24h1v1h-1v-1zM24 25h1v1h-1v-1zM7 27h1v1h-1v-1zM13 28h1v1h-1v-1zM18 30h1v1h-1v-1zM26 31h1v1h-1v-1zM31 31h1v1h-1v-1zM37 31h1v1h-1v-1zM9 32h1v1h-1v-1zM14 32h1v1h-1v-1zM13 33h1v1h-1v-1zM15 33h1v1h-1v-1zM37 33h1v1h-1v-1zM10 34h1v1h-1v-1zM14 34h1v1h-1v-1zM18 35h1v1h-1v-1zM32 35h1v1h-1v-1zM10 36h1v1h-1v-1zM19 37h1v1h-1v-1zM25 37h1v1h-1v-1z" fill="#586e75"></path><path d="M13 1h2v1h1v1h-1v3h-1v-2h-1v-3zM16 1h3v1h2v1h-1v1h-2v1h2v-1h1v1h2v1h1v2h-1v-1h-1v1h-1v-1h-1v-1h-3v1h-1v1h-1v-2h1v-1h1v-3h-1v-1zM21 1h2v1h-2v-1zM24 1h4v1h-1v1h-1v-1h-2v-1zM10 2h2v2h1v1h-1v1h2v3h-1v-2h-1v2h-1v1h2v1h-1v1h-1v2h-2v-1h1v-2h-2v-1h2v-1h-1v-2h1v1h1v-1h-1v-1h1v-1h-1v-1h1v-1h-1v-1zM23 2h1v1h1v1h-1v1h-1v-3zM29 2h1v3h-1v-3zM25 4h2v2h1v2h-1v-1h-1v-2h-1v-1zM29 6h1v6h-2v1h-1v-1h-3v1h-1v-2h1v-1h1v-1h1v1h1v-1h1v2h1v-2h-1v-1h1v-2zM17 7h1v2h1v-2h1v1h1v2h-1v3h-1v-3h-1v3h-1v-3h-1v2h-1v1h2v1h-1v1h-1v1h-2v-3h1v-1h-1v-1h1v-1h1v-1h2v-2zM22 8h1v1h1v1h-1v1h-2v-1h1v-2zM6 9h2v1h-2v-1zM33 9h1v1h1v-1h1v2h2v3h-1v-1h-1v-1h-1v-1h-2v-2zM3 11h1v2h2v1h-1v2h-1v2h-1v-2h-2v-2h1v1h2v-1h-1v-1h-2v-1h2v-1zM6 11h2v1h-1v1h-1v-2zM31 11h1v1h2v1h-1v3h-1v2h-2v-1h1v-1h-2v2h1v2h1v1h-3v1h-2v-1h1v-1h-1v-2h-1v-1h3v-4h1v1h2v1h1v-1h-1v-3zM6 14h1v1h1v1h-1v1h1v1h-2v1h-1v-2h1v-3zM20 14h1v1h3v2h-1v-1h-2v1h-1v-1h-1v-1h1v-1zM25 14h2v1h-2v-1zM9 15h2v1h2v2h-1v-1h-3v-2zM34 15h1v1h1v-1h2v2h-2v2h-1v2h3v1h-2v1h2v1h-4v-1h1v-1h-1v1h-2v-1h-1v-1h1v-1h1v1h1v-1h-1v-1h1v-1h1v-1h-1v-2zM15 16h2v1h-1v2h-1v-1h-1v-1h1v-1zM19 17h1v1h1v1h-2v1h-1v-1h-1v-1h2v-1zM22 17h1v1h2v2h1v1h-2v2h-1v-1h-1v-5zM8 18h4v1h1v-1h1v2h2v1h1v1h-1v1h-2v-1h1v-1h-1v1h-1v-1h-1v-1h-2v1h-1v1h-2v1h-1v-2h2v-1h1v-1h-1v-1zM1 19h4v3h-1v-1h-2v-1h-1v-1zM6 19h2v1h-2v-1zM18 21h1v2h-1v1h-1v-2h1v-1zM9 22h4v1h1v1h-1v1h-2v1h-1v1h3v1h-1v2h-1v-1h-1v-1h-1v-1h-1v-1h1v-4zM28 22h2v1h-1v2h-1v3h1v1h-1v1h1v-1h1v-1h1v1h2v-1h3v2h-1v-1h-1v1h1v1h1v1h-1v1h-1v1h-2v1h-1v-1h-2v1h-1v1h-1v-2h-3v1h-1v-2h2v-1h1v1h2v-1h1v-1h-2v-1h-2v-2h1v1h1v-1h-1v-1h-1v-1h1v-1h1v-1h1v-2zM4 23h2v2h-1v1h1v1h-2v1h-1v-1h-1v3h-1v-4h2v-2h1v-1zM11 23v1h1v-1h-1zM19 23h2v2h-1v1h3v1h1v1h-1v1h-2v1h-1v-2h-1v1h-1v-2h-1v-2h1v1h1v-3zM30 23h1v2h1v-1h1v3h-1v1h-1v-2h-1v1h-1v-2h1v-2zM6 25h2v1h-2v-1zM14 25h2v1h-1v1h-2v-1h1v-1zM34 25h1v1h2v1h1v2h-1v-1h-1v-1h-2v-2zM16 27h1v2h1v1h-2v-1h-1v-1h1v-1zM21 27v1h1v-1h-1zM4 28h3v1h3v2h-1v-1h-3v-1h-1v1h-2v-1h1v-1zM23 29h1v1h1v2h-1v-1h-1v-2zM13 30h1v2h-3v-1h2v-1zM15 30h1v2h-1v-2zM30 30v3h3v-3h-3zM17 31h1v1h2v-1h3v1h-1v2h-1v1h-1v-1h-1v-1h-1v1h-1v-1h-1v-1h1v-1zM35 33h1v2h-1v-2zM16 34h1v2h1v1h-1v1h-1v-1h-1v1h-1v-1h-1v1h-1v-3h1v1h2v-1h1v-1zM21 35h2v1h-2v-1zM24 35h2v1h-1v1h-1v-2zM29 35h2v2h-1v1h-2v-1h1v-2zM37 35h1v3h-1v-3zM33 36h2v1h-2v-1zM22 37h2v1h-2v-1z" fill="#586e75"></path></svg>