<?xml version="1.0" encoding="UTF-8" standalone="no"?>
<!DOCTYPE svg PUBLIC "-//W3C//DTD SVG 1.1//EN"
 "http://www.w3.org/Graphics/SVG/1.1/DTD/svg11.dtd">
<!-- Generated by graphviz version 2.43.0 (0)
 -->
<!-- Title: %3 Pages: 1 -->
<svg width="142pt" height="116pt"
 viewBox="0.00 0.00 142.00 116.00" xmlns="http://www.w3.org/2000/svg" xmlns:xlink="http://www.w3.org/1999/xlink">
<g id="graph0" class="graph" transform="scale(1 1) rotate(0) translate(4 112)">
<title>%3</title>
<!-- Add -->
<g id="node1" class="node disabled">
<title>Add</title>
<path fill="#d0dce3" stroke="#d0dce3" d="M84,-108C84,-108 54,-108 54,-108 48,-108 42,-102 42,-96 42,-96 42,-84 42,-84 42,-78 48,-72 54,-72 54,-72 84,-72 84,-72 90,-72 96,-78 96,-84 96,-84 96,-96 96,-96 96,-102 90,-108 84,-108"/>
<text text-anchor="middle" x="69" y="-86.3" font-family="Inter,Arial" font-size="14.00" fill="#ffffff">Add</text>
</g>
<!-- One -->
<g id="node2" class="node leaf,disabled">
<title>One</title>
<path fill="#ffffff" stroke="#d0dce3" d="M50,-36C50,-36 12,-36 12,-36 6,-36 0,-30 0,-24 0,-24 0,-12 0,-12 0,-6 6,0 12,0 12,0 50,0 50,0 56,0 62,-6 62,-12 62,-12 62,-24 62,-24 62,-30 56,-36 50,-36"/>
<text text-anchor="middle" x="31" y="-14.3" font-family="Inter,Arial" font-size="14.00" fill="#d0dce3">Num(1)</text>
</g>
<!-- Add&#45;&gt;One -->
<g id="edge1" class="edge disabled">
<title>Add&#45;&gt;One</title>
<path fill="none" stroke="#d0dce3" d="M59.61,-71.7C55.24,-63.64 49.94,-53.89 45.1,-44.98"/>
<polygon fill="#d0dce3" stroke="#d0dce3" points="48.13,-43.22 40.29,-36.1 41.98,-46.56 48.13,-43.22"/>
</g>
<!-- Two -->
<g id="node3" class="node leaf,add">
<title>Two</title>
<path fill="#acf2bd" stroke="#24a808" d="M122,-36C122,-36 92,-36 92,-36 86,-36 80,-30 80,-24 80,-24 80,-12 80,-12 80,-6 86,0 92,0 92,0 122,0 122,0 128,0 134,-6 134,-12 134,-12 134,-24 134,-24 134,-30 128,-36 122,-36"/>
<text text-anchor="middle" x="107" y="-14.3" font-family="Inter,Arial" font-size="14.00" fill="#24a808">???</text>
</g>
<!-- Add&#45;&gt;Two -->
<g id="edge2" class="edge disabled">
<title>Add&#45;&gt;Two</title>
<path fill="none" stroke="#d0dce3" d="M78.39,-71.7C82.76,-63.64 88.06,-53.89 92.9,-44.98"/>
<polygon fill="#d0dce3" stroke="#d0dce3" points="96.02,-46.56 97.71,-36.1 89.87,-43.22 96.02,-46.56"/>
</g>
</g>
</svg>
