<?xml version="1.0" encoding="UTF-8" standalone="no"?>
<!DOCTYPE svg PUBLIC "-//W3C//DTD SVG 1.1//EN"
 "http://www.w3.org/Graphics/SVG/1.1/DTD/svg11.dtd">
<!-- Generated by graphviz version 2.43.0 (0)
 -->
<!-- Title: %3 Pages: 1 -->
<svg width="570pt" height="116pt"
 viewBox="0.00 0.00 570.00 116.00" xmlns="http://www.w3.org/2000/svg" xmlns:xlink="http://www.w3.org/1999/xlink">
<g id="graph0" class="graph" transform="scale(1 1) rotate(0) translate(4 112)">
<title>%3</title>
<!-- cons1 -->
<g id="node1" class="node start">
<title>cons1</title>
<path fill="#586e75" stroke="#586e75" d="M107.5,-108C107.5,-108 77.5,-108 77.5,-108 71.5,-108 65.5,-102 65.5,-96 65.5,-96 65.5,-84 65.5,-84 65.5,-78 71.5,-72 77.5,-72 77.5,-72 107.5,-72 107.5,-72 113.5,-72 119.5,-78 119.5,-84 119.5,-84 119.5,-96 119.5,-96 119.5,-102 113.5,-108 107.5,-108"/>
<text text-anchor="middle" x="92.5" y="-86.3" font-family="Inter,Arial" font-size="14.00" fill="#ffffff">::</text>
</g>
<!-- cons2 -->
<!-- cons1&#45;&gt;cons2 -->
<g id="edge1" class="edge">
<title>cons1&#45;&gt;cons2</title>
<path fill="none" stroke="#586e75" d="M119.62,-90C149.39,-90 198.24,-90 231.7,-90"/>
<polygon fill="#586e75" stroke="#586e75" points="231.98,-93.5 241.98,-90 231.98,-86.5 231.98,-93.5"/>
</g>
<!-- print1 -->
<g id="node5" class="node">
<title>print1</title>
<path fill="#ffffff" stroke="#586e75" d="M173,-36C173,-36 12,-36 12,-36 6,-36 0,-30 0,-24 0,-24 0,-12 0,-12 0,-6 6,0 12,0 12,0 173,0 173,0 179,0 185,-6 185,-12 185,-12 185,-24 185,-24 185,-30 179,-36 173,-36"/>
<text text-anchor="middle" x="92.5" y="-14.3" font-family="Inter,Arial" font-size="14.00" fill="#586e75">Print(&quot;What is your name?&quot;)</text>
</g>
<!-- cons1&#45;&gt;print1 -->
<g id="edge4" class="edge">
<title>cons1&#45;&gt;print1</title>
<path fill="none" stroke="#586e75" d="M92.5,-71.95C92.5,-63.41 92.5,-54.86 92.5,-46.31"/>
<polygon fill="#586e75" stroke="#586e75" points="96,-46.28 92.5,-36.28 89,-46.28 96,-46.28"/>
</g>
<!-- cons3 -->
<!-- cons2&#45;&gt;cons3 -->
<!-- read -->
<!-- cons2&#45;&gt;read -->
<!-- nil -->
<!-- cons3&#45;&gt;nil -->
<!-- print2 -->
<!-- cons3&#45;&gt;print2 -->
<!-- print1&#45;&gt;read -->
<!-- read&#45;&gt;print2 -->
<!-- stop -->
<!-- print2&#45;&gt;stop -->
</g>
</svg>
