<?xml version="1.0" encoding="UTF-8" standalone="no"?>
<!DOCTYPE svg PUBLIC "-//W3C//DTD SVG 1.1//EN"
 "http://www.w3.org/Graphics/SVG/1.1/DTD/svg11.dtd">
<!-- Generated by graphviz version 2.43.0 (0)
 -->
<!-- Title: %3 Pages: 1 -->
<svg width="570pt" height="116pt"
 viewBox="0.00 0.00 570.00 116.00" xmlns="http://www.w3.org/2000/svg" xmlns:xlink="http://www.w3.org/1999/xlink">
<g id="graph0" class="graph" transform="scale(1 1) rotate(0) translate(4 112)">
<title>%3</title>
<!-- cons1 -->
<g id="node1" class="node start,disabled">
<title>cons1</title>
<path fill="#d0dce3" stroke="#d0dce3" d="M107.5,-108C107.5,-108 77.5,-108 77.5,-108 71.5,-108 65.5,-102 65.5,-96 65.5,-96 65.5,-84 65.5,-84 65.5,-78 71.5,-72 77.5,-72 77.5,-72 107.5,-72 107.5,-72 113.5,-72 119.5,-78 119.5,-84 119.5,-84 119.5,-96 119.5,-96 119.5,-102 113.5,-108 107.5,-108"/>
<text text-anchor="middle" x="92.5" y="-86.3" font-family="Inter,Arial" font-size="14.00" fill="#ffffff">::</text>
</g>
<!-- cons2 -->
<g id="node2" class="node">
<title>cons2</title>
<path fill="#ffffff" stroke="#586e75" d="M284,-108C284,-108 254,-108 254,-108 248,-108 242,-102 242,-96 242,-96 242,-84 242,-84 242,-78 248,-72 254,-72 254,-72 284,-72 284,-72 290,-72 296,-78 296,-84 296,-84 296,-96 296,-96 296,-102 290,-108 284,-108"/>
<text text-anchor="middle" x="269" y="-86.3" font-family="Inter,Arial" font-size="14.00" fill="#586e75">::</text>
</g>
<!-- cons1&#45;&gt;cons2 -->
<g id="edge1" class="edge disabled">
<title>cons1&#45;&gt;cons2</title>
<path fill="none" stroke="#d0dce3" d="M119.62,-90C149.39,-90 198.24,-90 231.7,-90"/>
<polygon fill="#d0dce3" stroke="#d0dce3" points="231.98,-93.5 241.98,-90 231.98,-86.5 231.98,-93.5"/>
</g>
<!-- print1 -->
<g id="node5" class="node disabled">
<title>print1</title>
<path fill="#ffffff" stroke="#d0dce3" d="M173,-36C173,-36 12,-36 12,-36 6,-36 0,-30 0,-24 0,-24 0,-12 0,-12 0,-6 6,0 12,0 12,0 173,0 173,0 179,0 185,-6 185,-12 185,-12 185,-24 185,-24 185,-30 179,-36 173,-36"/>
<text text-anchor="middle" x="92.5" y="-14.3" font-family="Inter,Arial" font-size="14.00" fill="#d0dce3">Print(&quot;What is your name?&quot;)</text>
</g>
<!-- cons1&#45;&gt;print1 -->
<g id="edge4" class="edge disabled">
<title>cons1&#45;&gt;print1</title>
<path fill="none" stroke="#d0dce3" d="M92.5,-71.95C92.5,-63.41 92.5,-54.86 92.5,-46.31"/>
<polygon fill="#d0dce3" stroke="#d0dce3" points="96,-46.28 92.5,-36.28 89,-46.28 96,-46.28"/>
</g>
<!-- cons3 -->
<!-- cons2&#45;&gt;cons3 -->
<g id="edge2" class="edge">
<title>cons2&#45;&gt;cons3</title>
<path fill="none" stroke="#586e75" d="M296.19,-90C315.83,-90 342.94,-90 364.67,-90"/>
<polygon fill="#586e75" stroke="#586e75" points="364.85,-93.5 374.85,-90 364.85,-86.5 364.85,-93.5"/>
</g>
<!-- read -->
<g id="node6" class="node">
<title>read</title>
<path fill="#ffffff" stroke="#586e75" d="M284,-36C284,-36 254,-36 254,-36 248,-36 242,-30 242,-24 242,-24 242,-12 242,-12 242,-6 248,0 254,0 254,0 284,0 284,0 290,0 296,-6 296,-12 296,-12 296,-24 296,-24 296,-30 290,-36 284,-36"/>
<text text-anchor="middle" x="269" y="-14.3" font-family="Inter,Arial" font-size="14.00" fill="#586e75">Read</text>
</g>
<!-- cons2&#45;&gt;read -->
<g id="edge5" class="edge">
<title>cons2&#45;&gt;read</title>
<path fill="none" stroke="#586e75" d="M269,-71.95C269,-63.41 269,-54.86 269,-46.31"/>
<polygon fill="#586e75" stroke="#586e75" points="272.5,-46.28 269,-36.28 265.5,-46.28 272.5,-46.28"/>
</g>
<!-- nil -->
<!-- cons3&#45;&gt;nil -->
<!-- print2 -->
<!-- cons3&#45;&gt;print2 -->
<!-- print1&#45;&gt;read -->
<!-- read&#45;&gt;print2 -->
<!-- stop -->
<!-- print2&#45;&gt;stop -->
</g>
</svg>
