<?xml version="1.0" encoding="UTF-8" standalone="no"?>
<!DOCTYPE svg PUBLIC "-//W3C//DTD SVG 1.1//EN"
 "http://www.w3.org/Graphics/SVG/1.1/DTD/svg11.dtd">
<!-- Generated by graphviz version 2.43.0 (0)
 -->
<!-- Title: %3 Pages: 1 -->
<svg width="380pt" height="116pt"
 viewBox="0.00 0.00 380.20 116.00" xmlns="http://www.w3.org/2000/svg" xmlns:xlink="http://www.w3.org/1999/xlink">
<g id="graph0" class="graph" transform="scale(1 1) rotate(0) translate(4 112)">
<title>%3</title>
<!-- Start -->
<!-- ChainString -->
<g id="node3" class="node start,disabled">
<title>ChainString</title>
<path fill="#d0dce3" stroke="#d0dce3" d="M123.6,-108C123.6,-108 52.6,-108 52.6,-108 46.6,-108 40.6,-102 40.6,-96 40.6,-96 40.6,-84 40.6,-84 40.6,-78 46.6,-72 52.6,-72 52.6,-72 123.6,-72 123.6,-72 129.6,-72 135.6,-78 135.6,-84 135.6,-84 135.6,-96 135.6,-96 135.6,-102 129.6,-108 123.6,-108"/>
<text text-anchor="middle" x="88.1" y="-86.3" font-family="Inter,Arial" font-size="14.00" fill="#ffffff">Chain[String]</text>
</g>
<!-- Start&#45;&gt;ChainString -->
<g id="edge4" class="edge start,disabled">
<title>Start&#45;&gt;ChainString</title>
<path fill="none" stroke="#d0dce3" stroke-width="2" d="M3.75,-90C6.92,-90 17.69,-90 30.49,-90"/>
<polygon fill="#d0dce3" stroke="#d0dce3" stroke-width="2" points="30.57,-93.5 40.57,-90 30.57,-86.5 30.57,-93.5"/>
</g>
<!-- Goal -->
<!-- String -->
<!-- ChainString&#45;&gt;String -->
<!-- ChainUnit -->
<g id="node5" class="node goal">
<title>ChainUnit</title>
<path fill="#586e75" stroke="#586e75" d="M319.6,-36C319.6,-36 260.6,-36 260.6,-36 254.6,-36 248.6,-30 248.6,-24 248.6,-24 248.6,-12 248.6,-12 248.6,-6 254.6,0 260.6,0 260.6,0 319.6,0 319.6,0 325.6,0 331.6,-6 331.6,-12 331.6,-12 331.6,-24 331.6,-24 331.6,-30 325.6,-36 319.6,-36"/>
<text text-anchor="middle" x="290.1" y="-14.3" font-family="Inter,Arial" font-size="14.00" fill="#ffffff">Chain[Unit]</text>
</g>
<!-- ChainString&#45;&gt;ChainUnit -->
<!-- String&#45;&gt;ChainUnit -->
<!-- ChainUnit&#45;&gt;Goal -->
<g id="edge5" class="edge goal">
<title>ChainUnit&#45;&gt;Goal</title>
<path fill="none" stroke="#586e75" stroke-width="2" d="M331.63,-18C341.55,-18 351.36,-18 358.49,-18"/>
<polygon fill="#586e75" stroke="#586e75" stroke-width="2" points="358.56,-21.5 368.56,-18 358.56,-14.5 358.56,-21.5"/>
</g>
</g>
</svg>
