<?xml version="1.0" encoding="UTF-8" standalone="no"?>
<!DOCTYPE svg PUBLIC "-//W3C//DTD SVG 1.1//EN"
 "http://www.w3.org/Graphics/SVG/1.1/DTD/svg11.dtd">
<!-- Generated by graphviz version 2.43.0 (0)
 -->
<!-- Title: %3 Pages: 1 -->
<svg width="348pt" height="98pt"
 viewBox="0.00 0.00 348.20 98.00" xmlns="http://www.w3.org/2000/svg" xmlns:xlink="http://www.w3.org/1999/xlink">
<g id="graph0" class="graph" transform="scale(1 1) rotate(0) translate(4 94)">
<title>%3</title>
<!-- Start2 -->
<!-- String -->
<g id="node6" class="node start">
<title>String</title>
<path fill="#586e75" stroke="#586e75" d="M82.6,-36C82.6,-36 52.6,-36 52.6,-36 46.6,-36 40.6,-30 40.6,-24 40.6,-24 40.6,-12 40.6,-12 40.6,-6 46.6,0 52.6,0 52.6,0 82.6,0 82.6,0 88.6,0 94.6,-6 94.6,-12 94.6,-12 94.6,-24 94.6,-24 94.6,-30 88.6,-36 82.6,-36"/>
<text text-anchor="middle" x="67.6" y="-14.3" font-family="Inter,Arial" font-size="14.00" fill="#ffffff">String</text>
</g>
<!-- Start2&#45;&gt;String -->
<g id="edge6" class="edge start">
<title>Start2&#45;&gt;String</title>
<path fill="none" stroke="#586e75" stroke-width="2" d="M3.91,-18C7.37,-18 18.49,-18 30.42,-18"/>
<polygon fill="#586e75" stroke="#586e75" stroke-width="2" points="30.48,-21.5 40.48,-18 30.48,-14.5 30.48,-21.5"/>
</g>
<!-- Start1 -->
<!-- Unit -->
<g id="node5" class="node start">
<title>Unit</title>
<path fill="#586e75" stroke="#586e75" d="M82.6,-90C82.6,-90 52.6,-90 52.6,-90 46.6,-90 40.6,-84 40.6,-78 40.6,-78 40.6,-66 40.6,-66 40.6,-60 46.6,-54 52.6,-54 52.6,-54 82.6,-54 82.6,-54 88.6,-54 94.6,-60 94.6,-66 94.6,-66 94.6,-78 94.6,-78 94.6,-84 88.6,-90 82.6,-90"/>
<text text-anchor="middle" x="67.6" y="-68.3" font-family="Inter,Arial" font-size="14.00" fill="#ffffff">Unit</text>
</g>
<!-- Start1&#45;&gt;Unit -->
<g id="edge5" class="edge start">
<title>Start1&#45;&gt;Unit</title>
<path fill="none" stroke="#586e75" stroke-width="2" d="M3.91,-72C7.37,-72 18.49,-72 30.42,-72"/>
<polygon fill="#586e75" stroke="#586e75" stroke-width="2" points="30.48,-75.5 40.48,-72 30.48,-68.5 30.48,-75.5"/>
</g>
<!-- Goal1 -->
<!-- Goal2 -->
<!-- A1 -->
<g id="node7" class="node">
<title>A1</title>
<path fill="#ffffff" stroke="#586e75" d="M193.6,-90C193.6,-90 163.6,-90 163.6,-90 157.6,-90 151.6,-84 151.6,-78 151.6,-78 151.6,-66 151.6,-66 151.6,-60 157.6,-54 163.6,-54 163.6,-54 193.6,-54 193.6,-54 199.6,-54 205.6,-60 205.6,-66 205.6,-66 205.6,-78 205.6,-78 205.6,-84 199.6,-90 193.6,-90"/>
<text text-anchor="middle" x="178.6" y="-68.3" font-family="Inter,Arial" font-size="14.00" fill="#586e75">A</text>
</g>
<!-- Unit&#45;&gt;A1 -->
<g id="edge1" class="edge">
<title>Unit&#45;&gt;A1</title>
<path fill="none" stroke="#586e75" d="M94.71,-72C108.63,-72 125.97,-72 141.2,-72"/>
<polygon fill="#586e75" stroke="#586e75" points="141.33,-75.5 151.33,-72 141.33,-68.5 141.33,-75.5"/>
<text text-anchor="middle" x="123.1" y="-75.2" font-family="Inter,Arial" font-size="11.00" fill="#586e75">next</text>
</g>
<!-- A2 -->
<g id="node8" class="node">
<title>A2</title>
<path fill="#ffffff" stroke="#586e75" d="M193.6,-36C193.6,-36 163.6,-36 163.6,-36 157.6,-36 151.6,-30 151.6,-24 151.6,-24 151.6,-12 151.6,-12 151.6,-6 157.6,0 163.6,0 163.6,0 193.6,0 193.6,0 199.6,0 205.6,-6 205.6,-12 205.6,-12 205.6,-24 205.6,-24 205.6,-30 199.6,-36 193.6,-36"/>
<text text-anchor="middle" x="178.6" y="-14.3" font-family="Inter,Arial" font-size="14.00" fill="#586e75">A</text>
</g>
<!-- String&#45;&gt;A2 -->
<g id="edge3" class="edge">
<title>String&#45;&gt;A2</title>
<path fill="none" stroke="#586e75" d="M94.71,-18C108.63,-18 125.97,-18 141.2,-18"/>
<polygon fill="#586e75" stroke="#586e75" points="141.33,-21.5 151.33,-18 141.33,-14.5 141.33,-21.5"/>
<text text-anchor="middle" x="123.1" y="-21.2" font-family="Inter,Arial" font-size="11.00" fill="#586e75">next</text>
</g>
<!-- B1 -->
<!-- A1&#45;&gt;B1 -->
<!-- B2 -->
<!-- A2&#45;&gt;B2 -->
<!-- B1&#45;&gt;Goal1 -->
<!-- B2&#45;&gt;Goal2 -->
</g>
</svg>
