<?xml version="1.0" encoding="UTF-8" standalone="no"?>
<!DOCTYPE svg PUBLIC "-//W3C//DTD SVG 1.1//EN"
 "http://www.w3.org/Graphics/SVG/1.1/DTD/svg11.dtd">
<!-- Generated by graphviz version 2.43.0 (0)
 -->
<!-- Title: %3 Pages: 1 -->
<svg width="348pt" height="98pt"
 viewBox="0.00 0.00 348.20 98.00" xmlns="http://www.w3.org/2000/svg" xmlns:xlink="http://www.w3.org/1999/xlink">
<g id="graph0" class="graph" transform="scale(1 1) rotate(0) translate(4 94)">
<title>%3</title>
<!-- Start2 -->
<!-- String -->
<g id="node6" class="node disabled">
<title>String</title>
<path fill="#ffffff" stroke="#d0dce3" d="M82.6,-36C82.6,-36 52.6,-36 52.6,-36 46.6,-36 40.6,-30 40.6,-24 40.6,-24 40.6,-12 40.6,-12 40.6,-6 46.6,0 52.6,0 52.6,0 82.6,0 82.6,0 88.6,0 94.6,-6 94.6,-12 94.6,-12 94.6,-24 94.6,-24 94.6,-30 88.6,-36 82.6,-36"/>
<text text-anchor="middle" x="67.6" y="-14.3" font-family="Inter,Arial" font-size="14.00" fill="#d0dce3">String</text>
</g>
<!-- Start2&#45;&gt;String -->
<g id="edge6" class="edge start,disabled">
<title>Start2&#45;&gt;String</title>
<path fill="none" stroke="#d0dce3" stroke-width="2" d="M3.91,-18C7.37,-18 18.49,-18 30.42,-18"/>
<polygon fill="#d0dce3" stroke="#d0dce3" stroke-width="2" points="30.48,-21.5 40.48,-18 30.48,-14.5 30.48,-21.5"/>
</g>
<!-- Start1 -->
<!-- Unit -->
<g id="node5" class="node disabled">
<title>Unit</title>
<path fill="#ffffff" stroke="#d0dce3" d="M82.6,-90C82.6,-90 52.6,-90 52.6,-90 46.6,-90 40.6,-84 40.6,-78 40.6,-78 40.6,-66 40.6,-66 40.6,-60 46.6,-54 52.6,-54 52.6,-54 82.6,-54 82.6,-54 88.6,-54 94.6,-60 94.6,-66 94.6,-66 94.6,-78 94.6,-78 94.6,-84 88.6,-90 82.6,-90"/>
<text text-anchor="middle" x="67.6" y="-68.3" font-family="Inter,Arial" font-size="14.00" fill="#d0dce3">Unit</text>
</g>
<!-- Start1&#45;&gt;Unit -->
<g id="edge5" class="edge start,disabled">
<title>Start1&#45;&gt;Unit</title>
<path fill="none" stroke="#d0dce3" stroke-width="2" d="M3.91,-72C7.37,-72 18.49,-72 30.42,-72"/>
<polygon fill="#d0dce3" stroke="#d0dce3" stroke-width="2" points="30.48,-75.5 40.48,-72 30.48,-68.5 30.48,-75.5"/>
</g>
<!-- Goal1 -->
<!-- Goal2 -->
<!-- A1 -->
<g id="node7" class="node">
<title>A1</title>
<path fill="#ffffff" stroke="#586e75" d="M193.6,-90C193.6,-90 163.6,-90 163.6,-90 157.6,-90 151.6,-84 151.6,-78 151.6,-78 151.6,-66 151.6,-66 151.6,-60 157.6,-54 163.6,-54 163.6,-54 193.6,-54 193.6,-54 199.6,-54 205.6,-60 205.6,-66 205.6,-66 205.6,-78 205.6,-78 205.6,-84 199.6,-90 193.6,-90"/>
<text text-anchor="middle" x="178.6" y="-68.3" font-family="Inter,Arial" font-size="14.00" fill="#586e75">A</text>
</g>
<!-- Unit&#45;&gt;A1 -->
<g id="edge1" class="edge disabled">
<title>Unit&#45;&gt;A1</title>
<path fill="none" stroke="#d0dce3" d="M94.71,-72C108.63,-72 125.97,-72 141.2,-72"/>
<polygon fill="#d0dce3" stroke="#d0dce3" points="141.33,-75.5 151.33,-72 141.33,-68.5 141.33,-75.5"/>
<text text-anchor="middle" x="123.1" y="-75.2" font-family="Inter,Arial" font-size="11.00" fill="#d0dce3">next</text>
</g>
<!-- A2 -->
<g id="node8" class="node">
<title>A2</title>
<path fill="#ffffff" stroke="#586e75" d="M193.6,-36C193.6,-36 163.6,-36 163.6,-36 157.6,-36 151.6,-30 151.6,-24 151.6,-24 151.6,-12 151.6,-12 151.6,-6 157.6,0 163.6,0 163.6,0 193.6,0 193.6,0 199.6,0 205.6,-6 205.6,-12 205.6,-12 205.6,-24 205.6,-24 205.6,-30 199.6,-36 193.6,-36"/>
<text text-anchor="middle" x="178.6" y="-14.3" font-family="Inter,Arial" font-size="14.00" fill="#586e75">A</text>
</g>
<!-- String&#45;&gt;A2 -->
<g id="edge3" class="edge disabled">
<title>String&#45;&gt;A2</title>
<path fill="none" stroke="#d0dce3" d="M94.71,-18C108.63,-18 125.97,-18 141.2,-18"/>
<polygon fill="#d0dce3" stroke="#d0dce3" points="141.33,-21.5 151.33,-18 141.33,-14.5 141.33,-21.5"/>
<text text-anchor="middle" x="123.1" y="-21.2" font-family="Inter,Arial" font-size="11.00" fill="#d0dce3">next</text>
</g>
<!-- B1 -->
<g id="node9" class="node goal">
<title>B1</title>
<path fill="#586e75" stroke="#586e75" d="M287.6,-90C287.6,-90 257.6,-90 257.6,-90 251.6,-90 245.6,-84 245.6,-78 245.6,-78 245.6,-66 245.6,-66 245.6,-60 251.6,-54 257.6,-54 257.6,-54 287.6,-54 287.6,-54 293.6,-54 299.6,-60 299.6,-66 299.6,-66 299.6,-78 299.6,-78 299.6,-84 293.6,-90 287.6,-90"/>
<text text-anchor="middle" x="272.6" y="-68.3" font-family="Inter,Arial" font-size="14.00" fill="#ffffff">B</text>
</g>
<!-- A1&#45;&gt;B1 -->
<g id="edge2" class="edge">
<title>A1&#45;&gt;B1</title>
<path fill="none" stroke="#586e75" d="M205.72,-72C214.94,-72 225.49,-72 235.4,-72"/>
<polygon fill="#586e75" stroke="#586e75" points="235.42,-75.5 245.42,-72 235.42,-68.5 235.42,-75.5"/>
<text text-anchor="middle" x="225.6" y="-75.2" font-family="Inter,Arial" font-size="11.00" fill="#586e75">f</text>
</g>
<!-- B2 -->
<g id="node10" class="node goal">
<title>B2</title>
<path fill="#586e75" stroke="#586e75" d="M287.6,-36C287.6,-36 257.6,-36 257.6,-36 251.6,-36 245.6,-30 245.6,-24 245.6,-24 245.6,-12 245.6,-12 245.6,-6 251.6,0 257.6,0 257.6,0 287.6,0 287.6,0 293.6,0 299.6,-6 299.6,-12 299.6,-12 299.6,-24 299.6,-24 299.6,-30 293.6,-36 287.6,-36"/>
<text text-anchor="middle" x="272.6" y="-14.3" font-family="Inter,Arial" font-size="14.00" fill="#ffffff">B</text>
</g>
<!-- A2&#45;&gt;B2 -->
<g id="edge4" class="edge">
<title>A2&#45;&gt;B2</title>
<path fill="none" stroke="#586e75" d="M205.72,-18C214.94,-18 225.49,-18 235.4,-18"/>
<polygon fill="#586e75" stroke="#586e75" points="235.42,-21.5 245.42,-18 235.42,-14.5 235.42,-21.5"/>
<text text-anchor="middle" x="225.6" y="-21.2" font-family="Inter,Arial" font-size="11.00" fill="#586e75">f</text>
</g>
<!-- B1&#45;&gt;Goal1 -->
<g id="edge7" class="edge goal">
<title>B1&#45;&gt;Goal1</title>
<path fill="none" stroke="#586e75" stroke-width="2" d="M299.92,-72C309.17,-72 319.07,-72 326.37,-72"/>
<polygon fill="#586e75" stroke="#586e75" stroke-width="2" points="326.51,-75.5 336.51,-72 326.51,-68.5 326.51,-75.5"/>
</g>
<!-- B2&#45;&gt;Goal2 -->
<g id="edge8" class="edge goal">
<title>B2&#45;&gt;Goal2</title>
<path fill="none" stroke="#586e75" stroke-width="2" d="M299.92,-18C309.17,-18 319.07,-18 326.37,-18"/>
<polygon fill="#586e75" stroke="#586e75" stroke-width="2" points="326.51,-21.5 336.51,-18 326.51,-14.5 326.51,-21.5"/>
</g>
</g>
</svg>
