<?xml version="1.0" encoding="UTF-8" standalone="no"?>
<!DOCTYPE svg PUBLIC "-//W3C//DTD SVG 1.1//EN"
 "http://www.w3.org/Graphics/SVG/1.1/DTD/svg11.dtd">
<!-- Generated by graphviz version 2.43.0 (0)
 -->
<!-- Title: %3 Pages: 1 -->
<svg width="529pt" height="116pt"
 viewBox="0.00 0.00 529.20 116.00" xmlns="http://www.w3.org/2000/svg" xmlns:xlink="http://www.w3.org/1999/xlink">
<g id="graph0" class="graph" transform="scale(1 1) rotate(0) translate(4 112)">
<title>%3</title>
<!-- Start -->
<!-- FFreeFA -->
<g id="node5" class="node start,disabled">
<title>FFreeFA</title>
<path fill="#d0dce3" stroke="#d0dce3" d="M118.6,-108C118.6,-108 52.6,-108 52.6,-108 46.6,-108 40.6,-102 40.6,-96 40.6,-96 40.6,-84 40.6,-84 40.6,-78 46.6,-72 52.6,-72 52.6,-72 118.6,-72 118.6,-72 124.6,-72 130.6,-78 130.6,-84 130.6,-84 130.6,-96 130.6,-96 130.6,-102 124.6,-108 118.6,-108"/>
<text text-anchor="middle" x="85.6" y="-86.3" font-family="Inter,Arial" font-size="14.00" fill="#ffffff">F[Free[F, A]]</text>
</g>
<!-- Start&#45;&gt;FFreeFA -->
<g id="edge5" class="edge start,disabled">
<title>Start&#45;&gt;FFreeFA</title>
<path fill="none" stroke="#d0dce3" stroke-width="2" d="M3.72,-90C6.85,-90 17.63,-90 30.34,-90"/>
<polygon fill="#d0dce3" stroke="#d0dce3" stroke-width="2" points="30.35,-93.5 40.35,-90 30.35,-86.5 30.35,-93.5"/>
</g>
<!-- Goal -->
<!-- FreeFA -->
<!-- GA -->
<g id="node4" class="node goal">
<title>GA</title>
<path fill="#586e75" stroke="#586e75" d="M468.6,-108C468.6,-108 438.6,-108 438.6,-108 432.6,-108 426.6,-102 426.6,-96 426.6,-96 426.6,-84 426.6,-84 426.6,-78 432.6,-72 438.6,-72 438.6,-72 468.6,-72 468.6,-72 474.6,-72 480.6,-78 480.6,-84 480.6,-84 480.6,-96 480.6,-96 480.6,-102 474.6,-108 468.6,-108"/>
<text text-anchor="middle" x="453.6" y="-86.3" font-family="Inter,Arial" font-size="14.00" fill="#ffffff">G[A]</text>
</g>
<!-- FreeFA&#45;&gt;GA -->
<!-- GA&#45;&gt;Goal -->
<g id="edge6" class="edge goal">
<title>GA&#45;&gt;Goal</title>
<path fill="none" stroke="#586e75" stroke-width="2" d="M480.92,-90C490.17,-90 500.07,-90 507.37,-90"/>
<polygon fill="#586e75" stroke="#586e75" stroke-width="2" points="507.51,-93.5 517.51,-90 507.51,-86.5 507.51,-93.5"/>
</g>
<!-- GFreeFA -->
<!-- FFreeFA&#45;&gt;GFreeFA -->
<!-- GFreeFA&#45;&gt;FreeFA -->
<!-- GFreeFA&#45;&gt;GA -->
</g>
</svg>
