<?xml version="1.0" encoding="UTF-8" standalone="no"?>
<!DOCTYPE svg PUBLIC "-//W3C//DTD SVG 1.1//EN"
 "http://www.w3.org/Graphics/SVG/1.1/DTD/svg11.dtd">
<!-- Generated by graphviz version 2.43.0 (0)
 -->
<!-- Title: %3 Pages: 1 -->
<svg width="477pt" height="44pt"
 viewBox="0.00 0.00 477.20 44.00" xmlns="http://www.w3.org/2000/svg" xmlns:xlink="http://www.w3.org/1999/xlink">
<g id="graph0" class="graph" transform="scale(1 1) rotate(0) translate(4 40)">
<title>%3</title>
<!-- Start -->
<!-- Console -->
<g id="node3" class="node start">
<title>Console</title>
<path fill="#586e75" stroke="#586e75" d="M153.6,-36C153.6,-36 52.6,-36 52.6,-36 46.6,-36 40.6,-30 40.6,-24 40.6,-24 40.6,-12 40.6,-12 40.6,-6 46.6,0 52.6,0 52.6,0 153.6,0 153.6,0 159.6,0 165.6,-6 165.6,-12 165.6,-12 165.6,-24 165.6,-24 165.6,-30 159.6,-36 153.6,-36"/>
<text text-anchor="middle" x="103.1" y="-14.3" font-family="Inter,Arial" font-size="14.00" fill="#ffffff">Console[Chain[A]]</text>
</g>
<!-- Start&#45;&gt;Console -->
<g id="edge3" class="edge start">
<title>Start&#45;&gt;Console</title>
<path fill="none" stroke="#586e75" stroke-width="2" d="M3.92,-18C7.23,-18 17.57,-18 30.38,-18"/>
<polygon fill="#586e75" stroke="#586e75" stroke-width="2" points="30.57,-21.5 40.57,-18 30.57,-14.5 30.57,-21.5"/>
</g>
<!-- Goal -->
<!-- Chain -->
<!-- Console&#45;&gt;Chain -->
<!-- A -->
<!-- Chain&#45;&gt;A -->
<!-- A&#45;&gt;Goal -->
</g>
</svg>
