<?xml version="1.0" encoding="UTF-8" standalone="no"?>
<!DOCTYPE svg PUBLIC "-//W3C//DTD SVG 1.1//EN"
 "http://www.w3.org/Graphics/SVG/1.1/DTD/svg11.dtd">
<!-- Generated by graphviz version 2.43.0 (0)
 -->
<!-- Title: %3 Pages: 1 -->
<svg width="141pt" height="44pt"
 viewBox="0.00 0.00 141.20 44.00" xmlns="http://www.w3.org/2000/svg" xmlns:xlink="http://www.w3.org/1999/xlink">
<g id="graph0" class="graph" transform="scale(1 1) rotate(0) translate(4 40)">
<title>%3</title>
<!-- Start -->
<!-- A -->
<g id="node3" class="node start,goal">
<title>A</title>
<path fill="#586e75" stroke="#586e75" d="M81.6,-36C81.6,-36 51.6,-36 51.6,-36 45.6,-36 39.6,-30 39.6,-24 39.6,-24 39.6,-12 39.6,-12 39.6,-6 45.6,0 51.6,0 51.6,0 81.6,0 81.6,0 87.6,0 93.6,-6 93.6,-12 93.6,-12 93.6,-24 93.6,-24 93.6,-30 87.6,-36 81.6,-36"/>
<text text-anchor="middle" x="66.6" y="-14.3" font-family="Inter,Arial" font-size="14.00" fill="#ffffff">A</text>
</g>
<!-- Start&#45;&gt;A -->
<g id="edge1" class="edge start">
<title>Start&#45;&gt;A</title>
<path fill="none" stroke="#586e75" stroke-width="2" d="M3.89,-18C7.24,-18 17.86,-18 29.37,-18"/>
<polygon fill="#586e75" stroke="#586e75" stroke-width="2" points="29.55,-21.5 39.55,-18 29.55,-14.5 29.55,-21.5"/>
</g>
<!-- Goal -->
<!-- A&#45;&gt;Goal -->
<g id="edge2" class="edge goal">
<title>A&#45;&gt;Goal</title>
<path fill="none" stroke="#586e75" stroke-width="2" d="M93.87,-18C102.81,-18 112.32,-18 119.4,-18"/>
<polygon fill="#586e75" stroke="#586e75" stroke-width="2" points="119.54,-21.5 129.54,-18 119.54,-14.5 119.54,-21.5"/>
</g>
</g>
</svg>
