<?xml version="1.0" encoding="UTF-8" standalone="no"?>
<!DOCTYPE svg PUBLIC "-//W3C//DTD SVG 1.1//EN"
 "http://www.w3.org/Graphics/SVG/1.1/DTD/svg11.dtd">
<!-- Generated by graphviz version 2.43.0 (0)
 -->
<!-- Title: %3 Pages: 1 -->
<svg width="553pt" height="116pt"
 viewBox="0.00 0.00 553.20 116.00" xmlns="http://www.w3.org/2000/svg" xmlns:xlink="http://www.w3.org/1999/xlink">
<g id="graph0" class="graph" transform="scale(1 1) rotate(0) translate(4 112)">
<title>%3</title>
<!-- Start -->
<!-- ConsoleA -->
<g id="node5" class="node start">
<title>ConsoleA</title>
<path fill="#586e75" stroke="#586e75" d="M111.6,-108C111.6,-108 52.6,-108 52.6,-108 46.6,-108 40.6,-102 40.6,-96 40.6,-96 40.6,-84 40.6,-84 40.6,-78 46.6,-72 52.6,-72 52.6,-72 111.6,-72 111.6,-72 117.6,-72 123.6,-78 123.6,-84 123.6,-84 123.6,-96 123.6,-96 123.6,-102 117.6,-108 111.6,-108"/>
<text text-anchor="middle" x="82.1" y="-86.3" font-family="Inter,Arial" font-size="14.00" fill="#ffffff">Console[A]</text>
</g>
<!-- Start&#45;&gt;ConsoleA -->
<g id="edge4" class="edge start">
<title>Start&#45;&gt;ConsoleA</title>
<path fill="none" stroke="#586e75" stroke-width="2" d="M3.68,-90C6.76,-90 17.53,-90 30.1,-90"/>
<polygon fill="#586e75" stroke="#586e75" stroke-width="2" points="30.46,-93.5 40.46,-90 30.46,-86.5 30.46,-93.5"/>
</g>
<!-- Goal -->
<!-- A -->
<!-- ChainA -->
<!-- ChainA&#45;&gt;Goal -->
<!-- ConsoleA&#45;&gt;A -->
<!-- ConsoleChainA -->
<!-- ConsoleA&#45;&gt;ConsoleChainA -->
<!-- ConsoleChainA&#45;&gt;ChainA -->
</g>
</svg>
