<?xml version="1.0" encoding="UTF-8" standalone="no"?>
<!DOCTYPE svg PUBLIC "-//W3C//DTD SVG 1.1//EN"
 "http://www.w3.org/Graphics/SVG/1.1/DTD/svg11.dtd">
<!-- Generated by graphviz version 2.43.0 (0)
 -->
<!-- Title: %3 Pages: 1 -->
<svg width="553pt" height="116pt"
 viewBox="0.00 0.00 553.20 116.00" xmlns="http://www.w3.org/2000/svg" xmlns:xlink="http://www.w3.org/1999/xlink">
<g id="graph0" class="graph" transform="scale(1 1) rotate(0) translate(4 112)">
<title>%3</title>
<!-- Start -->
<!-- ConsoleA -->
<g id="node5" class="node start">
<title>ConsoleA</title>
<path fill="#586e75" stroke="#586e75" d="M111.6,-108C111.6,-108 52.6,-108 52.6,-108 46.6,-108 40.6,-102 40.6,-96 40.6,-96 40.6,-84 40.6,-84 40.6,-78 46.6,-72 52.6,-72 52.6,-72 111.6,-72 111.6,-72 117.6,-72 123.6,-78 123.6,-84 123.6,-84 123.6,-96 123.6,-96 123.6,-102 117.6,-108 111.6,-108"/>
<text text-anchor="middle" x="82.1" y="-86.3" font-family="Inter,Arial" font-size="14.00" fill="#ffffff">Console[A]</text>
</g>
<!-- Start&#45;&gt;ConsoleA -->
<g id="edge4" class="edge start">
<title>Start&#45;&gt;ConsoleA</title>
<path fill="none" stroke="#586e75" stroke-width="2" d="M3.68,-90C6.76,-90 17.53,-90 30.1,-90"/>
<polygon fill="#586e75" stroke="#586e75" stroke-width="2" points="30.46,-93.5 40.46,-90 30.46,-86.5 30.46,-93.5"/>
</g>
<!-- Goal -->
<!-- A -->
<!-- ChainA -->
<!-- ChainA&#45;&gt;Goal -->
<!-- ConsoleA&#45;&gt;A -->
<!-- ConsoleChainA -->
<g id="node6" class="node">
<title>ConsoleChainA</title>
<path fill="#ffffff" stroke="#586e75" d="M365.6,-108C365.6,-108 264.6,-108 264.6,-108 258.6,-108 252.6,-102 252.6,-96 252.6,-96 252.6,-84 252.6,-84 252.6,-78 258.6,-72 264.6,-72 264.6,-72 365.6,-72 365.6,-72 371.6,-72 377.6,-78 377.6,-84 377.6,-84 377.6,-96 377.6,-96 377.6,-102 371.6,-108 365.6,-108"/>
<text text-anchor="middle" x="315.1" y="-86.3" font-family="Inter,Arial" font-size="14.00" fill="#586e75">Console[Chain[A]]</text>
</g>
<!-- ConsoleA&#45;&gt;ConsoleChainA -->
<g id="edge1" class="edge">
<title>ConsoleA&#45;&gt;ConsoleChainA</title>
<path fill="none" stroke="#586e75" d="M123.6,-90C156.27,-90 203.03,-90 242.05,-90"/>
<polygon fill="#586e75" stroke="#586e75" points="242.31,-93.5 252.31,-90 242.31,-86.5 242.31,-93.5"/>
<text text-anchor="middle" x="188.1" y="-93.2" font-family="Inter,Arial" font-size="11.00" fill="#586e75">_.map(Done.apply)</text>
</g>
<!-- ConsoleChainA&#45;&gt;ChainA -->
</g>
</svg>
