<?xml version="1.0" encoding="UTF-8" standalone="no"?>
<!DOCTYPE svg PUBLIC "-//W3C//DTD SVG 1.1//EN"
 "http://www.w3.org/Graphics/SVG/1.1/DTD/svg11.dtd">
<!-- Generated by graphviz version 2.43.0 (0)
 -->
<!-- Title: %3 Pages: 1 -->
<svg width="374pt" height="116pt"
 viewBox="0.00 0.00 374.20 116.00" xmlns="http://www.w3.org/2000/svg" xmlns:xlink="http://www.w3.org/1999/xlink">
<g id="graph0" class="graph" transform="scale(1 1) rotate(0) translate(4 112)">
<title>%3</title>
<!-- Start -->
<!-- ConsoleA -->
<!-- Start&#45;&gt;ConsoleA -->
<!-- Goal -->
<!-- A -->
<g id="node3" class="node">
<title>A</title>
<path fill="#ffffff" stroke="#586e75" d="M97.1,-36C97.1,-36 67.1,-36 67.1,-36 61.1,-36 55.1,-30 55.1,-24 55.1,-24 55.1,-12 55.1,-12 55.1,-6 61.1,0 67.1,0 67.1,0 97.1,0 97.1,0 103.1,0 109.1,-6 109.1,-12 109.1,-12 109.1,-24 109.1,-24 109.1,-30 103.1,-36 97.1,-36"/>
<text text-anchor="middle" x="82.1" y="-14.3" font-family="Inter,Arial" font-size="14.00" fill="#586e75">A</text>
</g>
<!-- ChainA -->
<g id="node4" class="node">
<title>ChainA</title>
<path fill="#ffffff" stroke="#586e75" d="M285.1,-36C285.1,-36 241.1,-36 241.1,-36 235.1,-36 229.1,-30 229.1,-24 229.1,-24 229.1,-12 229.1,-12 229.1,-6 235.1,0 241.1,0 241.1,0 285.1,0 285.1,0 291.1,0 297.1,-6 297.1,-12 297.1,-12 297.1,-24 297.1,-24 297.1,-30 291.1,-36 285.1,-36"/>
<text text-anchor="middle" x="263.1" y="-14.3" font-family="Inter,Arial" font-size="14.00" fill="#586e75">Chain[A]</text>
</g>
<!-- A&#45;&gt;ChainA -->
<g id="edge1" class="edge">
<title>A&#45;&gt;ChainA</title>
<path fill="none" stroke="#586e75" d="M109.13,-18C137.86,-18 184.58,-18 218.84,-18"/>
<polygon fill="#586e75" stroke="#586e75" points="219.04,-21.5 229.04,-18 219.04,-14.5 219.04,-21.5"/>
<text text-anchor="middle" x="162.1" y="-21.2" font-family="Inter,Arial" font-size="11.00" fill="#586e75">f</text>
</g>
<!-- ConsoleA&#45;&gt;A -->
<!-- ConsoleChainA -->
<!-- ConsoleA&#45;&gt;ConsoleChainA -->
<!-- ConsoleChainA&#45;&gt;Goal -->
<!-- ConsoleChainA&#45;&gt;ChainA -->
</g>
</svg>
