<?xml version="1.0" encoding="UTF-8" standalone="no"?>
<!DOCTYPE svg PUBLIC "-//W3C//DTD SVG 1.1//EN"
 "http://www.w3.org/Graphics/SVG/1.1/DTD/svg11.dtd">
<!-- Generated by graphviz version 2.43.0 (0)
 -->
<!-- Title: %3 Pages: 1 -->
<svg width="621pt" height="116pt"
 viewBox="0.00 0.00 621.20 116.00" xmlns="http://www.w3.org/2000/svg" xmlns:xlink="http://www.w3.org/1999/xlink">
<g id="graph0" class="graph" transform="scale(1 1) rotate(0) translate(4 112)">
<title>%3</title>
<!-- Start -->
<!-- ConsoleChainChainA -->
<g id="node3" class="node start,disabled">
<title>ConsoleChainChainA</title>
<path fill="#d0dce3" stroke="#d0dce3" d="M196.6,-108C196.6,-108 52.6,-108 52.6,-108 46.6,-108 40.6,-102 40.6,-96 40.6,-96 40.6,-84 40.6,-84 40.6,-78 46.6,-72 52.6,-72 52.6,-72 196.6,-72 196.6,-72 202.6,-72 208.6,-78 208.6,-84 208.6,-84 208.6,-96 208.6,-96 208.6,-102 202.6,-108 196.6,-108"/>
<text text-anchor="middle" x="124.6" y="-86.3" font-family="Inter,Arial" font-size="14.00" fill="#ffffff">Console[Chain[Chain[A]]]</text>
</g>
<!-- Start&#45;&gt;ConsoleChainChainA -->
<g id="edge6" class="edge start,disabled">
<title>Start&#45;&gt;ConsoleChainChainA</title>
<path fill="none" stroke="#d0dce3" stroke-width="2" d="M4.16,-90C7.65,-90 17.57,-90 30.29,-90"/>
<polygon fill="#d0dce3" stroke="#d0dce3" stroke-width="2" points="30.5,-93.5 40.5,-90 30.5,-86.5 30.5,-93.5"/>
</g>
<!-- End -->
<!-- ChainChainA -->
<!-- ConsoleChainChainA&#45;&gt;ChainChainA -->
<!-- ConsoleChainA -->
<!-- ConsoleChainChainA&#45;&gt;ConsoleChainA -->
<!-- ChainA -->
<g id="node4" class="node goal">
<title>ChainA</title>
<path fill="#586e75" stroke="#586e75" d="M560.6,-108C560.6,-108 516.6,-108 516.6,-108 510.6,-108 504.6,-102 504.6,-96 504.6,-96 504.6,-84 504.6,-84 504.6,-78 510.6,-72 516.6,-72 516.6,-72 560.6,-72 560.6,-72 566.6,-72 572.6,-78 572.6,-84 572.6,-84 572.6,-96 572.6,-96 572.6,-102 566.6,-108 560.6,-108"/>
<text text-anchor="middle" x="538.6" y="-86.3" font-family="Inter,Arial" font-size="14.00" fill="#ffffff">Chain[A]</text>
</g>
<!-- ChainA&#45;&gt;End -->
<g id="edge7" class="edge goal">
<title>ChainA&#45;&gt;End</title>
<path fill="none" stroke="#586e75" stroke-width="2" d="M572.93,-90C582.47,-90 592.21,-90 599.37,-90"/>
<polygon fill="#586e75" stroke="#586e75" stroke-width="2" points="599.54,-93.5 609.54,-90 599.54,-86.5 599.54,-93.5"/>
</g>
<!-- ChainA2 -->
<!-- ChainChainA&#45;&gt;ChainA2 -->
<!-- ConsoleChainA&#45;&gt;ChainA -->
<!-- ConsoleChainA&#45;&gt;ChainA2 -->
</g>
</svg>
