<?xml version="1.0" encoding="UTF-8" standalone="no"?>
<!DOCTYPE svg PUBLIC "-//W3C//DTD SVG 1.1//EN"
 "http://www.w3.org/Graphics/SVG/1.1/DTD/svg11.dtd">
<!-- Generated by graphviz version 2.43.0 (0)
 -->
<!-- Title: %3 Pages: 1 -->
<svg width="581pt" height="188pt"
 viewBox="0.00 0.00 581.20 188.00" xmlns="http://www.w3.org/2000/svg" xmlns:xlink="http://www.w3.org/1999/xlink">
<g id="graph0" class="graph" transform="scale(1 1) rotate(0) translate(4 184)">
<title>%3</title>
<!-- Start -->
<!-- ConsoleConsoleFA -->
<g id="node6" class="node start,disabled">
<title>ConsoleConsoleFA</title>
<path fill="#d0dce3" stroke="#d0dce3" d="M153.6,-180C153.6,-180 52.6,-180 52.6,-180 46.6,-180 40.6,-174 40.6,-168 40.6,-168 40.6,-156 40.6,-156 40.6,-150 46.6,-144 52.6,-144 52.6,-144 153.6,-144 153.6,-144 159.6,-144 165.6,-150 165.6,-156 165.6,-156 165.6,-168 165.6,-168 165.6,-174 159.6,-180 153.6,-180"/>
<text text-anchor="middle" x="103.1" y="-158.3" font-family="Inter,Arial" font-size="14.00" fill="#ffffff">Console[Chain[A]]</text>
</g>
<!-- Start&#45;&gt;ConsoleConsoleFA -->
<g id="edge9" class="edge start,disabled">
<title>Start&#45;&gt;ConsoleConsoleFA</title>
<path fill="none" stroke="#d0dce3" stroke-width="2" d="M3.92,-162C7.23,-162 17.57,-162 30.38,-162"/>
<polygon fill="#d0dce3" stroke="#d0dce3" stroke-width="2" points="30.57,-165.5 40.57,-162 30.57,-158.5 30.57,-165.5"/>
</g>
<!-- End -->
<!-- ConsoleFB2 -->
<g id="node3" class="node goal">
<title>ConsoleFB2</title>
<path fill="#586e75" stroke="#586e75" d="M520.6,-180C520.6,-180 476.6,-180 476.6,-180 470.6,-180 464.6,-174 464.6,-168 464.6,-168 464.6,-156 464.6,-156 464.6,-150 470.6,-144 476.6,-144 476.6,-144 520.6,-144 520.6,-144 526.6,-144 532.6,-150 532.6,-156 532.6,-156 532.6,-168 532.6,-168 532.6,-174 526.6,-180 520.6,-180"/>
<text text-anchor="middle" x="498.6" y="-158.3" font-family="Inter,Arial" font-size="14.00" fill="#ffffff">Chain[B]</text>
</g>
<!-- ConsoleFB2&#45;&gt;End -->
<g id="edge10" class="edge goal">
<title>ConsoleFB2&#45;&gt;End</title>
<path fill="none" stroke="#586e75" stroke-width="2" d="M532.93,-162C542.47,-162 552.21,-162 559.37,-162"/>
<polygon fill="#586e75" stroke="#586e75" stroke-width="2" points="559.54,-165.5 569.54,-162 559.54,-158.5 559.54,-165.5"/>
</g>
<!-- ConsoleFA -->
<!-- ConsoleFB -->
<!-- ConsoleFA&#45;&gt;ConsoleFB -->
<!-- A -->
<!-- ConsoleFA&#45;&gt;A -->
<!-- B -->
<!-- ConsoleFB&#45;&gt;B -->
<!-- ConsoleConsoleFA&#45;&gt;ConsoleFA -->
<!-- ConsoleConsoleFB -->
<!-- ConsoleConsoleFA&#45;&gt;ConsoleConsoleFB -->
<!-- ConsoleConsoleFB&#45;&gt;ConsoleFB2 -->
<!-- ConsoleConsoleFB&#45;&gt;ConsoleFB -->
<!-- A&#45;&gt;B -->
</g>
</svg>
